<svg width="25" height="25" viewBox="0 0 25 25" fill="none" xmlns="http://www.w3.org/2000/svg">
<g clip-path="url(#clip0)">
<path d="M23.0553 6.93316C23.0783 5.78679 22.8265 4.62771 22.622 3.4864C22.5516 3.09353 22.409 2.71388 22.2685 2.34137C22.1627 2.06094 21.8502 1.88236 21.5624 1.94374C21.3761 1.98343 21.2086 2.02208 21.0462 2.07551C19.3461 2.63482 17.7719 3.45281 16.2597 4.40317C16.0565 4.5307 15.761 4.57674 15.5157 4.55876C14.9289 4.51587 14.3484 4.36984 13.7619 4.34205C12.3102 4.27327 10.8615 4.31745 9.42301 4.56905C9.22303 4.60398 8.95976 4.56957 8.79363 4.46218C7.14459 3.39514 5.42888 2.48187 3.49889 1.96912C3.20916 1.89213 2.91101 1.93289 2.83773 2.04797C2.79299 2.11835 2.75253 2.19136 2.73031 2.26965C2.52181 3.00223 2.27471 3.73112 2.15354 4.4793C2.0091 5.37221 1.87021 6.29214 1.93873 7.18398C1.98187 7.74458 1.82706 8.08908 1.52074 8.48247C0.493122 9.80267 0.0303907 11.3202 0.00207515 12.9841C-0.0222632 14.4072 0.166089 15.794 0.599468 17.1545C1.26326 19.239 2.54507 20.8033 4.4751 21.8211C6.06198 22.6579 7.79117 22.9805 9.56061 23.0426C11.1554 23.0985 12.7534 23.0511 14.35 23.0601C15.9505 23.0691 17.5288 22.9265 19.0598 22.4275C20.5922 21.9282 21.9182 21.1227 22.9471 19.8559C24.4332 18.0262 24.8959 15.8707 24.9909 13.5891C25.0637 11.8443 24.7081 10.203 23.6863 8.77561C23.272 8.1965 23.0397 7.6991 23.0553 6.93316ZM19.9742 20.3025C19.2879 20.896 18.4487 21.1769 17.5896 21.3822C15.9041 21.7849 14.1879 21.8852 12.4661 21.81C10.7641 21.8838 9.08176 21.7777 7.42584 21.388C6.20434 21.1007 5.08918 20.6176 4.31191 19.5691C3.07506 17.9005 2.75892 14.7249 4.8027 12.9918C5.32388 12.5499 5.90515 12.2695 6.59198 12.2259C7.34997 12.1775 8.10822 12.083 8.86565 12.092C10.7764 12.1147 12.6862 12.2097 14.5967 12.224C15.4692 12.2303 16.3479 12.0269 17.214 12.0793C18.0011 12.1269 18.8287 12.2719 19.543 12.5886C20.7338 13.1166 21.3748 14.1873 21.5685 15.4414C21.8568 17.306 21.4764 19.0032 19.9742 20.3025Z" fill="white"/>
<path d="M16.8607 19.1011C17.8665 19.1011 18.6818 18.0115 18.6818 16.6674C18.6818 15.3232 17.8665 14.2336 16.8607 14.2336C15.855 14.2336 15.0397 15.3232 15.0397 16.6674C15.0397 18.0115 15.855 19.1011 16.8607 19.1011Z" fill="white"/>
<path d="M8.17165 19.1011C9.17751 19.1011 9.99291 18.0115 9.99291 16.6674C9.99291 15.3232 9.17751 14.2336 8.17165 14.2336C7.16579 14.2336 6.35038 15.3232 6.35038 16.6674C6.35038 18.0115 7.16579 19.1011 8.17165 19.1011Z" fill="white"/>
</g>
<defs>
<clipPath id="clip0">
<rect width="25" height="25" fill="#d3d3d3"/>
</clipPath>
</defs>
</svg>
