<svg width="27" height="27" viewBox="0 0 27 27" fill="none" xmlns="http://www.w3.org/2000/svg">
<path d="M9.00072 13.5C9.00072 11.0148 11.0148 8.99964 13.5 8.99964C15.9852 8.99964 18.0004 11.0148 18.0004 13.5C18.0004 15.9852 15.9852 18.0004 13.5 18.0004C11.0148 18.0004 9.00072 15.9852 9.00072 13.5ZM6.56791 13.5C6.56791 17.3286 9.6714 20.4321 13.5 20.4321C17.3286 20.4321 20.4321 17.3286 20.4321 13.5C20.4321 9.6714 17.3286 6.56791 13.5 6.56791C9.6714 6.56791 6.56791 9.6714 6.56791 13.5ZM19.0865 6.29305C19.0864 6.61346 19.1813 6.92671 19.3592 7.19319C19.5371 7.45966 19.79 7.6674 20.086 7.79014C20.3819 7.91287 20.7077 7.94508 21.0219 7.8827C21.3362 7.82032 21.6249 7.66614 21.8516 7.43967C22.0782 7.2132 22.2326 6.92461 22.2953 6.61038C22.3579 6.29616 22.3259 5.97042 22.2034 5.67435C22.081 5.37829 21.8734 5.12519 21.6071 4.94708C21.3407 4.76896 21.0276 4.67383 20.7072 4.6737H20.7065C20.277 4.6739 19.8652 4.84455 19.5615 5.14818C19.2577 5.4518 19.0869 5.86358 19.0865 6.29305V6.29305ZM8.046 24.4887C6.7298 24.4287 6.01441 24.2095 5.539 24.0243C4.90871 23.7789 4.459 23.4867 3.98617 23.0145C3.51335 22.5423 3.22067 22.093 2.97637 21.4627C2.79104 20.9875 2.5718 20.2719 2.51197 18.9557C2.44652 17.5327 2.43346 17.1053 2.43346 13.5001C2.43346 9.89496 2.4476 9.46868 2.51197 8.04449C2.57191 6.72829 2.79277 6.01409 2.97637 5.53748C3.22175 4.9072 3.514 4.45748 3.98617 3.98466C4.45835 3.51184 4.90763 3.21916 5.539 2.97486C6.0142 2.78953 6.7298 2.57029 8.046 2.51046C9.46901 2.44501 9.89647 2.43194 13.5 2.43194C17.1035 2.43194 17.5314 2.44609 18.9556 2.51046C20.2718 2.5704 20.986 2.79126 21.4626 2.97486C22.0929 3.21916 22.5426 3.51248 23.0154 3.98466C23.4883 4.45684 23.7799 4.9072 24.0252 5.53748C24.2106 6.01268 24.4298 6.72829 24.4896 8.04449C24.5551 9.46868 24.5682 9.89496 24.5682 13.5001C24.5682 17.1053 24.5551 17.5315 24.4896 18.9557C24.4297 20.2719 24.2094 20.9873 24.0252 21.4627C23.7799 22.093 23.4876 22.5427 23.0154 23.0145C22.5433 23.4862 22.0929 23.7789 21.4626 24.0243C20.9874 24.2096 20.2718 24.4288 18.9556 24.4887C17.5326 24.5541 17.1051 24.5672 13.5 24.5672C9.89485 24.5672 9.46858 24.5541 8.046 24.4887V24.4887ZM7.93422 0.081756C6.49706 0.147204 5.51502 0.375084 4.65739 0.708804C3.7692 1.05343 3.0173 1.51578 2.26595 2.26595C1.51459 3.01612 1.05343 3.7692 0.708804 4.65739C0.375084 5.51556 0.147204 6.49706 0.081756 7.93422C0.015228 9.37364 0 9.83383 0 13.5C0 17.1662 0.015228 17.6264 0.081756 19.0658C0.147204 20.503 0.375084 21.4844 0.708804 22.3426C1.05343 23.2303 1.5147 23.9842 2.26595 24.7341C3.0172 25.4839 3.7692 25.9456 4.65739 26.2912C5.51664 26.6249 6.49706 26.8528 7.93422 26.9182C9.3744 26.9837 9.83383 27 13.5 27C17.1662 27 17.6264 26.9848 19.0658 26.9182C20.503 26.8528 21.4844 26.6249 22.3426 26.2912C23.2303 25.9456 23.9827 25.4842 24.7341 24.7341C25.4854 23.9839 25.9456 23.2303 26.2912 22.3426C26.6249 21.4844 26.8539 20.5029 26.9182 19.0658C26.9837 17.6253 26.9989 17.1662 26.9989 13.5C26.9989 9.83383 26.9837 9.37364 26.9182 7.93422C26.8528 6.49696 26.6249 5.51502 26.2912 4.65739C25.9456 3.76974 25.4842 3.0173 24.7341 2.26595C23.9839 1.51459 23.2303 1.05343 22.3437 0.708804C21.4844 0.375084 20.5029 0.146124 19.0669 0.081756C17.6274 0.016308 17.1672 0 13.5011 0C9.83491 0 9.3744 0.015228 7.93422 0.081756Z" fill="url(#paint0_radial)"/>
<path d="M9.00072 13.5C9.00072 11.0148 11.0148 8.99964 13.5 8.99964C15.9852 8.99964 18.0004 11.0148 18.0004 13.5C18.0004 15.9852 15.9852 18.0004 13.5 18.0004C11.0148 18.0004 9.00072 15.9852 9.00072 13.5ZM6.56791 13.5C6.56791 17.3286 9.6714 20.4321 13.5 20.4321C17.3286 20.4321 20.4321 17.3286 20.4321 13.5C20.4321 9.6714 17.3286 6.56791 13.5 6.56791C9.6714 6.56791 6.56791 9.6714 6.56791 13.5ZM19.0865 6.29305C19.0864 6.61346 19.1813 6.92671 19.3592 7.19319C19.5371 7.45966 19.79 7.6674 20.086 7.79014C20.3819 7.91287 20.7077 7.94508 21.0219 7.8827C21.3362 7.82032 21.6249 7.66614 21.8516 7.43967C22.0782 7.2132 22.2326 6.92461 22.2953 6.61038C22.3579 6.29616 22.3259 5.97042 22.2034 5.67435C22.081 5.37829 21.8734 5.12519 21.6071 4.94708C21.3407 4.76896 21.0276 4.67383 20.7072 4.6737H20.7065C20.277 4.6739 19.8652 4.84455 19.5615 5.14818C19.2577 5.4518 19.0869 5.86358 19.0865 6.29305V6.29305ZM8.046 24.4887C6.7298 24.4287 6.01441 24.2095 5.539 24.0243C4.90871 23.7789 4.459 23.4867 3.98617 23.0145C3.51335 22.5423 3.22067 22.093 2.97637 21.4627C2.79104 20.9875 2.5718 20.2719 2.51197 18.9557C2.44652 17.5327 2.43346 17.1053 2.43346 13.5001C2.43346 9.89496 2.4476 9.46868 2.51197 8.04449C2.57191 6.72829 2.79277 6.01409 2.97637 5.53748C3.22175 4.9072 3.514 4.45748 3.98617 3.98466C4.45835 3.51184 4.90763 3.21916 5.539 2.97486C6.0142 2.78953 6.7298 2.57029 8.046 2.51046C9.46901 2.44501 9.89647 2.43194 13.5 2.43194C17.1035 2.43194 17.5314 2.44609 18.9556 2.51046C20.2718 2.5704 20.986 2.79126 21.4626 2.97486C22.0929 3.21916 22.5426 3.51248 23.0154 3.98466C23.4883 4.45684 23.7799 4.9072 24.0252 5.53748C24.2106 6.01268 24.4298 6.72829 24.4896 8.04449C24.5551 9.46868 24.5682 9.89496 24.5682 13.5001C24.5682 17.1053 24.5551 17.5315 24.4896 18.9557C24.4297 20.2719 24.2094 20.9873 24.0252 21.4627C23.7799 22.093 23.4876 22.5427 23.0154 23.0145C22.5433 23.4862 22.0929 23.7789 21.4626 24.0243C20.9874 24.2096 20.2718 24.4288 18.9556 24.4887C17.5326 24.5541 17.1051 24.5672 13.5 24.5672C9.89485 24.5672 9.46858 24.5541 8.046 24.4887V24.4887ZM7.93422 0.081756C6.49706 0.147204 5.51502 0.375084 4.65739 0.708804C3.7692 1.05343 3.0173 1.51578 2.26595 2.26595C1.51459 3.01612 1.05343 3.7692 0.708804 4.65739C0.375084 5.51556 0.147204 6.49706 0.081756 7.93422C0.015228 9.37364 0 9.83383 0 13.5C0 17.1662 0.015228 17.6264 0.081756 19.0658C0.147204 20.503 0.375084 21.4844 0.708804 22.3426C1.05343 23.2303 1.5147 23.9842 2.26595 24.7341C3.0172 25.4839 3.7692 25.9456 4.65739 26.2912C5.51664 26.6249 6.49706 26.8528 7.93422 26.9182C9.3744 26.9837 9.83383 27 13.5 27C17.1662 27 17.6264 26.9848 19.0658 26.9182C20.503 26.8528 21.4844 26.6249 22.3426 26.2912C23.2303 25.9456 23.9827 25.4842 24.7341 24.7341C25.4854 23.9839 25.9456 23.2303 26.2912 22.3426C26.6249 21.4844 26.8539 20.5029 26.9182 19.0658C26.9837 17.6253 26.9989 17.1662 26.9989 13.5C26.9989 9.83383 26.9837 9.37364 26.9182 7.93422C26.8528 6.49696 26.6249 5.51502 26.2912 4.65739C25.9456 3.76974 25.4842 3.0173 24.7341 2.26595C23.9839 1.51459 23.2303 1.05343 22.3437 0.708804C21.4844 0.375084 20.5029 0.146124 19.0669 0.081756C17.6274 0.016308 17.1672 0 13.5011 0C9.83491 0 9.3744 0.015228 7.93422 0.081756Z" fill="url(#paint1_radial)"/>
<defs>
<radialGradient id="paint0_radial" cx="0" cy="0" r="1" gradientUnits="userSpaceOnUse" gradientTransform="translate(3.58711 27.1275) scale(35.2462)">
<stop offset="0.09" stop-color="#FA8F21"/>
<stop offset="0.78" stop-color="#D82D7E"/>
</radialGradient>
<radialGradient id="paint1_radial" cx="0" cy="0" r="1" gradientUnits="userSpaceOnUse" gradientTransform="translate(16.3743 28.3371) scale(27.7789)">
<stop offset="0.64" stop-color="#8C3AAA" stop-opacity="0"/>
<stop offset="1" stop-color="#8C3AAA"/>
</radialGradient>
</defs>
</svg>
