<svg width="33" height="33" viewBox="0 0 33 33" fill="none" xmlns="http://www.w3.org/2000/svg">
<g clip-path="url(#clip0)">
<path d="M31.145 13.9122L31.1965 13.9234H9.11445L16.0563 6.96635C16.3962 6.62669 16.5826 6.16656 16.5826 5.68364C16.5826 5.20071 16.3962 4.74381 16.0563 4.40334L14.9761 3.32266C14.6364 2.983 14.1838 2.7952 13.7012 2.7952C13.2183 2.7952 12.7654 2.98166 12.4257 3.32132L0.526129 15.2198C0.185129 15.5608 -0.00133428 16.0151 7.18793e-06 16.4983C-0.00133428 16.9841 0.185129 17.4386 0.526129 17.7791L12.4257 29.6787C12.7654 30.0181 13.218 30.2048 13.7012 30.2048C14.1838 30.2048 14.6364 30.0178 14.9761 29.6787L16.0563 28.598C16.3962 28.2589 16.5826 27.806 16.5826 27.3231C16.5826 26.8404 16.3962 26.4114 16.0563 26.072L9.0361 19.076H31.1697C32.1643 19.076 33 18.2188 33 17.2248V15.6963C33 14.7023 32.1396 13.9122 31.145 13.9122Z" fill="#FDFDFD"/>
</g>
<defs>
<clipPath id="clip0">
<rect width="33" height="33" fill="white"/>
</clipPath>
</defs>
</svg>
