<svg width="27" height="28" viewBox="0 0 27 28" fill="none" xmlns="http://www.w3.org/2000/svg">
<g clip-path="url(#clip0)">
<path d="M23.0656 3.94106C20.5274 1.40115 17.1524 0.00161069 13.5566 6.10352e-05C6.14684 6.10352e-05 0.116802 6.02818 0.113836 13.4376C0.112972 15.806 0.731816 18.118 1.90807 20.1559L0.000976562 27.1194L7.12713 25.2508C9.09052 26.3216 11.3012 26.8858 13.5508 26.8867H13.5565H13.5566C20.9651 26.8867 26.9961 20.8575 26.9992 13.4485C27.0005 9.85753 25.6034 6.48114 23.0656 3.94106V3.94106ZM13.5566 24.6171H13.5522C11.547 24.616 9.58063 24.0777 7.86548 23.0599L7.4573 22.8179L3.22849 23.9267L4.35752 19.8051L4.09158 19.3826C2.97306 17.6041 2.38258 15.5488 2.38342 13.4385C2.38587 7.27999 7.39781 2.2698 13.5608 2.2698C16.5453 2.27104 19.3503 3.43434 21.4599 5.54544C23.5694 7.65651 24.7303 10.4629 24.7294 13.4475C24.7268 19.6062 19.7147 24.6171 13.5566 24.6171V24.6171Z" fill="#E0E0E0"/>
<path d="M0.61792 26.3467L2.43791 19.7013C1.31509 17.7565 0.724625 15.55 0.725333 13.2901C0.728278 6.21932 6.48294 0.466736 13.5536 0.466736C16.9854 0.468285 20.2063 1.80382 22.6279 4.22777C25.0501 6.6517 26.3833 9.87363 26.3819 13.3002C26.3789 20.3712 20.6239 26.1242 13.5541 26.1242C13.5536 26.1242 13.5545 26.1242 13.5541 26.1242H13.5484C11.4015 26.1236 9.29202 25.5846 7.41844 24.5635L0.61792 26.3467V26.3467Z" fill="url(#paint0_linear)"/>
<path fill-rule="evenodd" clip-rule="evenodd" d="M10.2345 7.73266C9.98577 7.17973 9.72392 7.16866 9.48731 7.15898C9.29379 7.15068 9.07223 7.15119 8.85103 7.15119C8.62965 7.15119 8.26992 7.23438 7.9657 7.56663C7.6613 7.89888 6.80347 8.70206 6.80347 10.3356C6.80347 11.9693 7.99337 13.5479 8.15923 13.7696C8.32526 13.9909 10.4562 17.4504 13.831 18.7812C16.6357 19.8873 17.2065 19.6672 17.8153 19.6119C18.4241 19.5566 19.7796 18.8089 20.0564 18.0335C20.3331 17.2584 20.3331 16.5939 20.2501 16.455C20.167 16.3166 19.9457 16.2336 19.6136 16.0676C19.2815 15.9015 17.6492 15.0982 17.3448 14.9875C17.0404 14.8768 16.8191 14.8215 16.5977 15.1539C16.3763 15.4859 15.7404 16.2336 15.5467 16.455C15.353 16.6769 15.1592 16.7045 14.8272 16.5385C14.4951 16.372 13.4258 16.0217 12.1572 14.8906C11.1701 14.0106 10.5037 12.9238 10.31 12.5914C10.1163 12.2593 10.2893 12.0794 10.4558 11.9139C10.6049 11.7652 10.7879 11.5263 10.9539 11.3324C11.1196 11.1386 11.175 11.0002 11.2857 10.7788C11.3963 10.5571 11.341 10.3632 11.258 10.1972C11.175 10.0312 10.5297 8.38919 10.2345 7.73266V7.73266Z" fill="white"/>
<path d="M22.9555 3.89833C20.4465 1.38758 17.1102 0.00413527 13.5557 0.00256348C6.23105 0.00256348 0.270259 5.96147 0.267314 13.2858C0.266451 15.6271 0.878186 17.9125 2.04093 19.9271L0.155762 26.8106L7.20009 24.9634C9.14095 26.0219 11.3262 26.5797 13.55 26.5805H13.5557H13.5557C20.8792 26.5805 26.8408 20.6206 26.844 13.2965C26.8452 9.74688 25.4642 6.40926 22.9555 3.89833V3.89833ZM13.5557 24.337H13.5514C11.5692 24.336 9.6254 23.8038 7.92995 22.7977L7.52644 22.5585L3.3462 23.6545L4.46226 19.5803L4.19937 19.1626C3.0937 17.4045 2.50999 15.3729 2.51085 13.2867C2.51326 7.19896 7.46764 2.24629 13.5599 2.24629C16.5101 2.2475 19.2829 3.39746 21.3683 5.48431C23.4536 7.57117 24.6011 10.3453 24.6003 13.2957C24.5977 19.3836 19.6431 24.337 13.5557 24.337Z" fill="white"/>
</g>
<defs>
<linearGradient id="paint0_linear" x1="13.4999" y1="26.3467" x2="13.4999" y2="0.466779" gradientUnits="userSpaceOnUse">
<stop stop-color="#20B038"/>
<stop offset="1" stop-color="#60D66A"/>
</linearGradient>
<clipPath id="clip0">
<rect width="27" height="27.1193" fill="white"/>
</clipPath>
</defs>
</svg>
